<svg xmlns="http://www.w3.org/2000/svg" xmlns:xlink="http://www.w3.org/1999/xlink" id="a06630f4-5a92-4acd-87f5-daab904272d6" width="822" height="773.08" data-name="Layer 1" viewBox="0 0 822 773.08"><defs><linearGradient id="12db0703-a137-44d6-91a2-a2698744205c" x1="255.71" x2="255.71" y1="773.08" gradientUnits="userSpaceOnUse"><stop offset="0" stop-color="gray" stop-opacity=".25"/><stop offset=".54" stop-color="gray" stop-opacity=".12"/><stop offset="1" stop-color="gray" stop-opacity=".1"/></linearGradient><linearGradient id="9c36067a-6324-4b3c-9cb6-e2cffff8588b" x1="570.12" x2="570.12" y1="703.31" y2="248.91" xlink:href="#12db0703-a137-44d6-91a2-a2698744205c"/></defs><title>post2</title><g opacity=".5"><rect width="511.42" height="773.08" fill="url(#12db0703-a137-44d6-91a2-a2698744205c)" rx="4.5" ry="4.5"/></g><rect width="498.31" height="757.43" x="6.56" y="5.68" fill="#fff" rx="4.5" ry="4.5"/><rect width="99.66" height="89.7" x="56.39" y="145.21" fill="#ff4200" rx="4.5" ry="4.5"/><rect width="269.09" height="9.97" x="185.95" y="145.21" fill="#e0e0e0" rx="4.48" ry="4.48"/><rect width="223.69" height="9.97" x="185.95" y="175.1" fill="#e0e0e0" rx="4.48" ry="4.48"/><rect width="99.66" height="89.7" x="56.39" y="284.73" fill="#ff4200" rx="4.5" ry="4.5"/><rect width="269.09" height="9.97" x="185.95" y="284.73" fill="#e0e0e0" rx="4.48" ry="4.48"/><rect width="269.09" height="9.97" x="185.95" y="314.63" fill="#e0e0e0" rx="4.48" ry="4.48"/><rect width="99.66" height="89.7" x="56.39" y="424.26" fill="#ff4200" rx="4.5" ry="4.5"/><rect width="269.09" height="9.97" x="185.95" y="424.26" fill="#e0e0e0" rx="4.48" ry="4.48"/><rect width="29.9" height="9.97" x="185.95" y="454.16" fill="#e0e0e0" rx="4.48" ry="4.48"/><g opacity=".5"><rect width="503.75" height="454.41" x="318.25" y="248.91" fill="url(#9c36067a-6324-4b3c-9cb6-e2cffff8588b)" rx="4.5" ry="4.5"/></g><rect width="489.04" height="440.14" x="326.03" y="253.47" fill="#fff" rx="4.5" ry="4.5"/><rect width="105.07" height="94.57" x="374.05" y="348.03" fill="#ff4200" rx="4.5" ry="4.5"/><rect width="283.7" height="10.51" x="510.64" y="348.03" fill="#e0e0e0" rx="4.5" ry="4.5"/><rect width="283.7" height="10.51" x="510.64" y="379.55" fill="#e0e0e0" rx="4.5" ry="4.5"/><rect width="430.8" height="10.51" x="363.54" y="493.97" fill="#e0e0e0" rx="4.5" ry="4.5"/><rect width="430.8" height="10.51" x="363.54" y="525.49" fill="#e0e0e0" rx="4.5" ry="4.5"/><rect width="430.8" height="10.51" x="363.54" y="567.52" fill="#e0e0e0" rx="4.5" ry="4.5"/><rect width="325.73" height="10.51" x="363.54" y="599.04" fill="#e0e0e0" rx="4.5" ry="4.5"/></svg>