<svg xmlns="http://www.w3.org/2000/svg" xmlns:xlink="http://www.w3.org/1999/xlink" id="d7f71427-0607-457b-a0aa-ebababd178b2" width="895" height="767" data-name="Layer 1" viewBox="0 0 895 767"><defs><linearGradient id="57e2f2ca-001c-4ef7-8bab-009a8b31d497" x1="127.5" x2="127.5" y1="767" y2="522" gradientUnits="userSpaceOnUse"><stop offset="0" stop-color="gray" stop-opacity=".25"/><stop offset=".54" stop-color="gray" stop-opacity=".12"/><stop offset="1" stop-color="gray" stop-opacity=".1"/></linearGradient><linearGradient id="0ddd3d69-b685-4f06-a899-3f61a943b7a1" x1="280" x2="280" y1="694.5" y2="623.5" xlink:href="#57e2f2ca-001c-4ef7-8bab-009a8b31d497"/><linearGradient id="d382657b-a62a-4621-ad28-05504ca41006" x1="447" x2="447" y2="515" xlink:href="#57e2f2ca-001c-4ef7-8bab-009a8b31d497"/><linearGradient id="3ea3cc15-fbba-466d-ad08-cdb215922834" x1="600" x2="600" y1="694.5" y2="623.5" xlink:href="#57e2f2ca-001c-4ef7-8bab-009a8b31d497"/><linearGradient id="af2e7206-9e18-4e25-834e-9a20608b0291" x1="767.5" x2="767.5" y2="524" xlink:href="#57e2f2ca-001c-4ef7-8bab-009a8b31d497"/><linearGradient id="fcb2f323-5044-42b0-9142-ccd93c9a6812" x1="920" x2="920" y1="694.5" y2="623.5" xlink:href="#57e2f2ca-001c-4ef7-8bab-009a8b31d497"/><linearGradient id="a1df6d83-942b-4ca0-8fd3-673791ff34e1" x1="463" x2="463" y1="595" y2="0" xlink:href="#57e2f2ca-001c-4ef7-8bab-009a8b31d497"/><linearGradient id="afb0f4e8-7f55-4367-a17b-b611621521ed" x1="617.89" x2="617.89" y1="237.7" y2="152.7" xlink:href="#57e2f2ca-001c-4ef7-8bab-009a8b31d497"/><linearGradient id="8a0b148b-d5f2-4b72-b316-6607a85c69d8" x1="218" x2="218" y1="194" y2="98" xlink:href="#57e2f2ca-001c-4ef7-8bab-009a8b31d497"/></defs><title>job hunt</title><rect width="255" height="245" y="522" fill="url(#57e2f2ca-001c-4ef7-8bab-009a8b31d497)"/><rect width="247" height="234" x="4" y="528" fill="#f5f5f5"/><g opacity=".5"><path fill="url(#0ddd3d69-b685-4f06-a899-3f61a943b7a1)" d="M301.85,635.52v-12H258.15v12H227.57v59H332.43v-59Zm-38.23-7.65h32.77v7.65H263.62Z" transform="translate(-152.5 -66.5)"/></g><rect width="96" height="54" x="79.5" y="571" fill="#ff4200" opacity=".6"/><polygon fill="#ff4200" points="107.5 560 107.5 574 112.5 574 112.5 564 142.5 564 142.5 574 147.5 574 147.5 560 107.5 560" opacity=".6"/><g opacity=".6"><rect width="89" height="12" x="85" y="667" fill="#ff4200"/></g><rect width="152" height="12" x="51.5" y="689" fill="#bdbdbd"/><rect width="254" height="252" x="320" y="515" fill="url(#d382657b-a62a-4621-ad28-05504ca41006)"/><rect width="247" height="234" x="324" y="528" fill="#f5f5f5"/><g opacity=".5"><path fill="url(#3ea3cc15-fbba-466d-ad08-cdb215922834)" d="M621.85,635.52v-12H578.15v12H547.57v59H652.43v-59Zm-38.23-7.65h32.77v7.65H583.62Z" transform="translate(-152.5 -66.5)"/></g><rect width="96" height="54" x="399.5" y="571" fill="#ff4200" opacity=".6"/><polygon fill="#ff4200" points="427.5 560 427.5 574 432.5 574 432.5 564 462.5 564 462.5 574 467.5 574 467.5 560 427.5 560"/><g opacity=".6"><rect width="89" height="12" x="405" y="667" fill="#ff4200"/></g><rect width="152" height="12" x="371.5" y="689" fill="#bdbdbd"/><rect width="255" height="243" x="640" y="524" fill="url(#af2e7206-9e18-4e25-834e-9a20608b0291)"/><rect width="247" height="234" x="644" y="528" fill="#f5f5f5"/><g opacity=".5"><path fill="url(#fcb2f323-5044-42b0-9142-ccd93c9a6812)" d="M941.85,635.52v-12H898.15v12H867.57v59H972.43v-59Zm-38.23-7.65h32.77v7.65H903.62Z" transform="translate(-152.5 -66.5)"/></g><rect width="96" height="54" x="719.5" y="571" fill="#ff4200" opacity=".6"/><polygon fill="#ff4200" points="747.5 560 747.5 574 752.5 574 752.5 564 782.5 564 782.5 574 787.5 574 787.5 560 747.5 560" opacity=".6"/><g opacity=".6"><rect width="89" height="12" x="725" y="667" fill="#ff4200"/></g><rect width="152" height="12" x="691.5" y="689" fill="#bdbdbd"/><g opacity=".5"><rect width="506.41" height="595" x="209.8" fill="url(#a1df6d83-942b-4ca0-8fd3-673791ff34e1)"/></g><rect width="480.07" height="572.25" x="225.36" y="9.58" fill="#fff"/><g opacity=".5"><path fill="url(#afb0f4e8-7f55-4367-a17b-b611621521ed)" d="M644,167.08V152.7H591.74v14.38H555.13V237.7H680.66V167.08Zm-45.77-9.15h39.23v9.15H598.28Z" transform="translate(-152.5 -66.5)"/></g><rect width="114.93" height="64.65" x="407.93" y="102.96" fill="#ff4200"/><polygon fill="#ff4200" points="441.45 89.79 441.45 106.55 447.44 106.55 447.44 94.58 483.35 94.58 483.35 106.55 489.34 106.55 489.34 89.79 441.45 89.79"/><rect width="337.61" height="14.37" x="297.19" y="260.65" fill="#e0e0e0"/><rect width="337.61" height="14.37" x="297.19" y="355.23" fill="#e0e0e0"/><rect width="337.61" height="14.37" x="297.19" y="380.37" fill="#e0e0e0"/><rect width="142.46" height="14.37" x="297.19" y="330.08" fill="#e0e0e0"/><rect width="106.55" height="14.37" x="528.25" y="330.08" fill="#3ad29f" opacity=".6"/><rect width="106.55" height="14.37" x="415.71" y="439.03" fill="#ff4200"/><g opacity=".5"><circle cx="218" cy="146" r="48" fill="url(#8a0b148b-d5f2-4b72-b316-6607a85c69d8)"/></g><circle cx="218" cy="146" r="45.18" fill="#69f0ae"/><polygon fill="#fff" points="199.06 139.18 216 154.71 240 119.41 248.47 126.47 216 168.82 192 142 199.06 139.18"/></svg>